<svg version="1.1" viewBox="0 0 14 21.723" xmlns="http://www.w3.org/2000/svg">
 <path d="m7 0c3.866 0 7 3.134 7 7 0 2.38-1.19 4.47-3 5.74v2.26c0 0.55228-0.44772 1-1 1h-6c-0.55228 0-1-0.44772-1-1v-2.26c-1.81-1.27-3-3.36-3-5.74 0-3.866 3.134-7 7-7m0 2c-2.7614 0-5 2.2386-5 5 0 2.05 1.23 3.81 3 4.58v2.42h4v-2.42c1.77-0.77 3-2.53 3-4.58 0-2.7614-2.2386-5-5-5z"/>
 <rect x="3.3575" y="16.898" width="7.2851" height="2.0437" ry=".6131"/>
 <rect x="4.1749" y="19.679" width="5.6501" height="2.0437" ry=".6131"/>
</svg>
