<svg version="1.1" viewBox="0 0 100 100" xmlns="http://www.w3.org/2000/svg">
 <g transform="translate(-45.067 -80.179)">
  <path transform="rotate(90)" d="m123.97-145.07h12.417a5.2917 5.2917 45 0 1 5.2917 5.2917v89.417a5.2917 5.2917 135 0 1-5.2917 5.2917h-12.417a5.2917 5.2917 45 0 1-5.2917-5.2917v-89.417a5.2917 5.2917 135 0 1 5.2917-5.2917zm-43.792 56.208v-12.417a5.2917 5.2917 135 0 1 5.2917-5.2917h89.417a5.2917 5.2917 45 0 1 5.2917 5.2917v12.417a5.2917 5.2917 135 0 1-5.2917 5.2917h-89.417a5.2917 5.2917 45 0 1-5.2917-5.2917z" style="fill:#fff;stroke-linecap:round;stroke-width:1.0756"/>
 </g>
</svg>