<svg version="1.1" viewBox="12 1 30.492 52.078" xmlns="http://www.w3.org/2000/svg">
 <g id="SVGRepo_iconCarrier" transform="translate(-.7539 -.9609)" style="fill:#fff">
  <path d="m25.012 54.039c6.75 0 12.234-5.4844 12.234-12.234 0-3.5625-1.4765-6.6797-4.2656-9.2109-0.5156-0.4688-0.6329-0.7266-0.6329-1.4297l0.0469-21.047c0-4.8985-2.9765-8.1563-7.3828-8.1563-4.4297 0-7.4062 3.2578-7.4062 8.1563l0.0234 21.047c0 0.7031-0.1172 0.9609-0.6093 1.4297-2.8126 2.5312-4.2657 5.6484-4.2657 9.2109 0 6.75 5.461 12.234 12.258 12.234zm0-3.3984c-4.875 0-8.8359-3.9844-8.8359-8.836 0-2.9297 1.3828-5.5781 3.8672-7.2422 0.7266-0.4922 1.0078-0.9375 1.0078-1.8984v-22.406c0-2.9531 1.6172-4.8515 3.9609-4.8515 2.3203 0 3.9141 1.8984 3.9141 4.8515v22.406c0 0.9609 0.2812 1.4062 1.0078 1.8984 2.4844 1.6641 3.8672 4.3125 3.8672 7.2422 0 4.8516-3.9375 8.836-8.7891 8.836zm11.742-40.078h5.1094c0.8203 0 1.3828-0.6328 1.3828-1.3594 0-0.7265-0.5625-1.3593-1.3828-1.3593h-5.1094c-0.8203 0-1.3828 0.6328-1.3828 1.3593 0 0.7266 0.5625 1.3594 1.3828 1.3594zm0 6.586h5.1094c0.8203 0 1.3828-0.6329 1.3828-1.3594 0-0.7266-0.5625-1.3594-1.3828-1.3594h-5.1094c-0.8203 0-1.3828 0.6328-1.3828 1.3594 0 0.7265 0.5625 1.3594 1.3828 1.3594zm-11.766 30.328c3.1406 0 5.6719-2.5313 5.6719-5.6953 0-2.2032-1.2422-4.0079-3.0469-4.9922-0.75-0.3984-1.0078-0.6797-1.0078-1.8282v-15.388c0-1.2187-0.7032-1.9453-1.6172-1.9453-0.8907 0-1.6172 0.7266-1.6172 1.9453v15.388c0 1.1485-0.2578 1.4298-1.0078 1.8282-1.8047 0.9843-3.0469 2.789-3.0469 4.9922 0 3.164 2.5312 5.6953 5.6719 5.6953zm11.766-23.742h5.1094c0.8203 0 1.3828-0.6328 1.3828-1.3594 0-0.7265-0.5625-1.3828-1.3828-1.3828h-5.1094c-0.8203 0-1.3828 0.6563-1.3828 1.3828 0 0.7266 0.5625 1.3594 1.3828 1.3594z" style="fill:#fff"/>
 </g>
</svg>
