<svg version="1.1" viewBox="0 0 62.435 62.435" xml:space="preserve" xmlns="http://www.w3.org/2000/svg"><rect x="1.8898" y="1.8898" width="58.656" height="58.656" ry="6.359" style="fill:none;stroke-linecap:round;stroke-linejoin:round;stroke-width:3.7795;stroke:#fff"/><path d="m14.163 37.247c3.8285 0 6.939-3.1107 6.939-6.939 0-2.0206-0.83746-3.7887-2.4194-5.2243-0.29244-0.2659-0.35897-0.41212-0.35897-0.81091l0.0266-11.938c0-2.7784-1.6882-4.6262-4.1874-4.6262-2.5125 0-4.2007 1.8478-4.2007 4.6262l0.01327 11.938c0 0.39879-0.06648 0.54501-0.34559 0.81091-1.5953 1.4357-2.4195 3.2037-2.4195 5.2243 0 3.8285 3.0974 6.939 6.9526 6.939zm0-1.9275c-2.765 0-5.0116-2.2599-5.0116-5.0117 0-1.6617 0.78431-3.1638 2.1934-4.1077 0.41212-0.27917 0.57161-0.53174 0.57161-1.0768v-12.708c0-1.675 0.91726-2.7517 2.2466-2.7517 1.316 0 2.22 1.0768 2.22 2.7517v12.708c0 0.54501 0.15949 0.79758 0.57161 1.0768 1.4091 0.94386 2.1934 2.446 2.1934 4.1077 0 2.7518-2.2333 5.0117-4.9851 5.0117zm6.6599-22.732h2.898c0.46527 0 0.78431-0.35892 0.78431-0.77104 0-0.41206-0.31904-0.77098-0.78431-0.77098h-2.898c-0.46527 0-0.78431 0.35892-0.78431 0.77098 0 0.41212 0.31904 0.77104 0.78431 0.77104zm0 3.7355h2.898c0.46527 0 0.78431-0.35897 0.78431-0.77104 0-0.41212-0.31904-0.77104-0.78431-0.77104h-2.898c-0.46527 0-0.78431 0.35892-0.78431 0.77104 0 0.41206 0.31904 0.77104 0.78431 0.77104zm-6.6736 17.202c1.7813 0 3.217-1.4357 3.217-3.2303 0-1.2496-0.70456-2.2732-1.7282-2.8315-0.42539-0.22597-0.57161-0.38552-0.57161-1.0369v-8.7279c0-0.69123-0.39885-1.1034-0.91726-1.1034-0.5052 0-0.91726 0.41212-0.91726 1.1034v8.7279c0 0.65142-0.14622 0.81097-0.57161 1.0369-1.0236 0.55828-1.7282 1.5819-1.7282 2.8315 0 1.7946 1.4357 3.2303 3.217 3.2303zm6.6736-13.466h2.898c0.46527 0 0.78431-0.35892 0.78431-0.77104 0-0.41206-0.31904-0.78431-0.78431-0.78431h-2.898c-0.46527 0-0.78431 0.37225-0.78431 0.78431 0 0.41212 0.31904 0.77104 0.78431 0.77104z" style="fill:#fff;stroke-width:.56719"/><path d="m11.421 51.014 39.593-39.593" style="fill:none;stroke-linecap:round;stroke-width:1.8898;stroke:#fff"/><g transform="matrix(.48003 0 0 .48003 34.146 25.239)"><g transform="translate(-27.5,-18.012)" style="fill:#fff"><path d="m50 82c-12.4 0-22.5-10.1-22.5-22.6 0-9 11.4-28.4 18.2-39 1.5-2.4 4.7-3.1 7.1-1.6 0.6 0.4 1.2 1 1.6 1.6 6.8 10.7 18.2 30 18.2 39-0.2 12.5-10.2 22.6-22.6 22.6zm0-59.9c-0.3 0-0.7 0.2-0.8 0.5-11 17.3-17.5 31.1-17.5 36.8 0 10.1 8.2 18.4 18.3 18.4s18.4-8.2 18.4-18.4c0-5.8-6.5-19.5-17.5-36.8-0.2-0.3-0.7-0.5-0.9-0.5z" style="fill:#fff"/></g><path d="m21.177 58.024c-3.6334-0.48172-7.3368-2.4974-9.8346-4.7589m-2.1968-2.3729c-0.79519-0.9917-1.4411-2.1731-1.9732-3.2091" style="fill:#fff;stroke-linecap:round;stroke-linejoin:round;stroke-width:2.143;stroke:#fff"/><g style="fill:#fff" aria-label="%"><path d="m21.495 32.775c0 0.72887-0.12444 1.3866-0.37333 1.9733-0.24 0.58667-0.56444 1.0889-0.97333 1.5067-0.40889 0.40889-0.88446 0.72444-1.4267 0.94667s-1.1067 0.33334-1.6933 0.33333c-0.64 0-1.2311-0.11111-1.7733-0.33333s-1.0133-0.53778-1.4133-0.94667c-0.39111-0.41778-0.69778-0.92001-0.92-1.5067-0.22222-0.58667-0.33333-1.2444-0.33333-1.9733 0-0.74667 0.11111-1.4222 0.33333-2.0267 0.22222-0.60445 0.52889-1.1155 0.92-1.5333 0.4-0.41778 0.8711-0.73778 1.4133-0.96 0.54222-0.23111 1.1333-0.34667 1.7733-0.34667s1.2311 0.11556 1.7733 0.34667c0.55111 0.22222 1.0267 0.54222 1.4267 0.96s0.71111 0.92888 0.93333 1.5333c0.22222 0.60445 0.33333 1.28 0.33333 2.0267zm-2.5467 0c0-0.51556-0.04889-0.94666-0.14667-1.2933-0.09778-0.34667-0.23556-0.62667-0.41333-0.84-0.16889-0.21333-0.37333-0.36444-0.61333-0.45333-0.23111-0.09778-0.48-0.14667-0.74667-0.14667s-0.51556 0.04889-0.74667 0.14667c-0.23111 0.08889-0.43111 0.24-0.6 0.45333s-0.30222 0.49333-0.4 0.84c-0.08889 0.34667-0.13333 0.77777-0.13333 1.2933 0 0.49778 0.04444 0.91555 0.13333 1.2533 0.09778 0.32889 0.23111 0.59555 0.4 0.8s0.36889 0.35111 0.6 0.44 0.48 0.13333 0.74667 0.13333 0.51556-0.04444 0.74667-0.13333c0.24-0.08889 0.44444-0.23555 0.61333-0.44 0.17778-0.20445 0.31556-0.47111 0.41333-0.8 0.09778-0.33778 0.14667-0.75555 0.14667-1.2533zm13.427 10.08c0 0.72887-0.12444 1.3866-0.37333 1.9733-0.24 0.58667-0.56445 1.0889-0.97334 1.5067-0.40889 0.40889-0.88445 0.72889-1.4267 0.96-0.54223 0.22222-1.1067 0.33333-1.6933 0.33333-0.64 0-1.2311-0.11111-1.7733-0.33333-0.54223-0.23111-1.0133-0.55111-1.4133-0.96-0.39111-0.41778-0.69778-0.92001-0.92-1.5067-0.22222-0.58667-0.33333-1.2444-0.33333-1.9733 0-0.74667 0.11111-1.4222 0.33333-2.0267 0.22222-0.60445 0.52889-1.1155 0.92-1.5333 0.4-0.41778 0.8711-0.73778 1.4133-0.96 0.54222-0.23111 1.1333-0.34667 1.7733-0.34667s1.2311 0.11556 1.7733 0.34667c0.55111 0.22222 1.0267 0.54222 1.4267 0.96s0.71111 0.92888 0.93334 1.5333 0.33334 1.28 0.33333 2.0267zm-2.5333 0c0-0.51555-0.05333-0.94665-0.16-1.2933-0.09778-0.34667-0.23556-0.62667-0.41333-0.84-0.16889-0.21333-0.37333-0.36444-0.61333-0.45333-0.23111-0.09778-0.48-0.14667-0.74667-0.14667s-0.51556 0.04889-0.74667 0.14667c-0.23111 0.08889-0.43111 0.24-0.6 0.45333-0.16 0.21333-0.28889 0.49333-0.38667 0.84s-0.14667 0.77777-0.14667 1.2933c0 0.49778 0.04889 0.91555 0.14667 1.2533 0.09778 0.33778 0.22667 0.60889 0.38667 0.81334 0.16889 0.20445 0.36889 0.35111 0.6 0.44s0.48 0.13333 0.74667 0.13333 0.51556-0.04444 0.74667-0.13333c0.24-0.08889 0.44444-0.23555 0.61333-0.44 0.17778-0.20445 0.31556-0.47556 0.41333-0.81334 0.10667-0.33778 0.16-0.75555 0.16-1.2533z"/></g><path d="m17.349 45.921 10.496-16.31" style="fill:none;stroke-linecap:round;stroke-width:1.6183;stroke:#fff"/></g></svg>
